<svg width="247" height="81" viewBox="0 0 247 81" fill="none" xmlns="http://www.w3.org/2000/svg">
<path fill-rule="evenodd" clip-rule="evenodd" d="M33.2817 73.0308C15.2569 73.0308 0.646484 58.4204 0.646484 40.3955C0.646484 22.3706 15.2569 7.76025 33.2817 7.76025C51.3066 7.76025 65.917 22.3706 65.917 40.3955C65.917 58.4204 51.3066 73.0308 33.2817 73.0308ZM50.6192 47.0592V30.3337L33.2817 19.9985L15.9443 30.3337V50.6389L33.2817 60.7925L47.5903 52.4134L32.215 43.296L34.9992 41.756V25.6423L46.7071 32.6222V40.0324L43.0621 37.8806L42.0831 41.9375L50.6192 47.0592ZM19.8564 32.6242L31.1115 25.9136V39.3104L19.8564 45.8374V32.6242ZM28.2131 45.5641L39.7578 52.4032L33.2817 56.193L21.8125 49.4763L28.2131 45.5641Z" fill="#F7F7F7"/>
<path d="M91.91 63.8955V28.1835H80.326V18.4555H113.862V28.1835H102.15V63.8955H91.91ZM139.888 59.7995C136.603 62.9995 132.635 64.5995 127.984 64.5995C123.333 64.5995 119.365 62.9995 116.08 59.7995C112.795 56.5568 111.152 52.5888 111.152 47.8955C111.152 43.2022 112.795 39.2555 116.08 36.0555C119.365 32.8128 123.333 31.1915 127.984 31.1915C132.635 31.1915 136.603 32.8128 139.888 36.0555C143.173 39.2555 144.816 43.2022 144.816 47.8955C144.816 52.5888 143.173 56.5568 139.888 59.7995ZM122.864 53.4635C124.229 54.8715 125.936 55.5755 127.984 55.5755C130.032 55.5755 131.717 54.8715 133.04 53.4635C134.405 52.0555 135.088 50.1995 135.088 47.8955C135.088 45.5915 134.405 43.7355 133.04 42.3275C131.717 40.9195 130.032 40.2155 127.984 40.2155C125.936 40.2155 124.229 40.9195 122.864 42.3275C121.541 43.7355 120.88 45.5915 120.88 47.8955C120.88 50.1995 121.541 52.0555 122.864 53.4635ZM162.473 64.5995C158.59 64.5995 155.604 63.2982 153.513 60.6955C151.422 58.0928 150.377 54.5728 150.377 50.1355V31.8955H160.041V48.4715C160.041 53.3782 161.684 55.8315 164.969 55.8315C168.98 55.8315 170.985 53.0368 170.985 47.4475V31.8955H180.649V63.8955H170.985V60.6315C169.15 63.2768 166.313 64.5995 162.473 64.5995ZM188.573 63.8955V31.8955H198.237V36.6955C198.749 35.2448 199.709 34.0288 201.117 33.0475C202.525 32.0235 204.104 31.5115 205.853 31.5115C206.963 31.5115 208.008 31.6395 208.989 31.8955V41.6875C207.496 41.1755 206.067 40.9195 204.701 40.9195C202.653 40.9195 201.053 41.6448 199.901 43.0955C198.792 44.5035 198.237 46.3808 198.237 48.7275V63.8955H188.573ZM240.013 59.7995C236.728 62.9995 232.76 64.5995 228.109 64.5995C223.458 64.5995 219.49 62.9995 216.205 59.7995C212.92 56.5568 211.277 52.5888 211.277 47.8955C211.277 43.2022 212.92 39.2555 216.205 36.0555C219.49 32.8128 223.458 31.1915 228.109 31.1915C232.76 31.1915 236.728 32.8128 240.013 36.0555C243.298 39.2555 244.941 43.2022 244.941 47.8955C244.941 52.5888 243.298 56.5568 240.013 59.7995ZM222.989 53.4635C224.354 54.8715 226.061 55.5755 228.109 55.5755C230.157 55.5755 231.842 54.8715 233.165 53.4635C234.53 52.0555 235.213 50.1995 235.213 47.8955C235.213 45.5915 234.53 43.7355 233.165 42.3275C231.842 40.9195 230.157 40.2155 228.109 40.2155C226.061 40.2155 224.354 40.9195 222.989 42.3275C221.666 43.7355 221.005 45.5915 221.005 47.8955C221.005 50.1995 221.666 52.0555 222.989 53.4635Z" fill="#F7F7F7"/>
</svg>
